<svg
  class="w-6 h-6"
  viewBox="0 0 24 24"
  fill="none"
  xmlns="http://www.w3.org/2000/svg"
>
  <g clip-path="url(#clip0_973_30612)">
    <path
      fill-rule="evenodd"
      clip-rule="evenodd"
      d="M5.34947 7.1896C5.34951 6.92443 5.45486 6.67014 5.64237 6.48263C5.82987 6.29513 6.08416 6.18978 6.34933 6.18974L14.8347 6.18974C15.0999 6.18978 15.3542 6.29513 15.5417 6.48263C15.7292 6.67014 15.8345 6.92443 15.8346 7.1896L15.8346 15.675C15.83 15.9372 15.7227 16.1871 15.5357 16.3708C15.3487 16.5546 15.0969 16.6576 14.8347 16.6576C14.5725 16.6576 14.3208 16.5546 14.1338 16.3708C13.9468 16.1871 13.8394 15.9372 13.8349 15.675L13.8349 9.60369L5.64221 17.7963C5.45468 17.9839 5.20032 18.0892 4.9351 18.0892C4.66988 18.0892 4.41552 17.9839 4.22798 17.7963C4.04044 17.6088 3.93509 17.3544 3.93509 17.0892C3.93509 16.824 4.04044 16.5696 4.22798 16.3821L12.4206 8.18946L6.34933 8.18946C6.08416 8.18942 5.82987 8.08407 5.64237 7.89656C5.45486 7.70906 5.34951 7.45477 5.34947 7.1896V7.1896Z"
      fill="currentColor"
    />
  </g>
  <defs>
    <clipPath id="clip0_973_30612">
      <rect width="24" height="24" fill="white" />
    </clipPath>
  </defs>
</svg>
