<svg width="24" height="24" viewBox="0 0 24 24" fill="currentColor" xmlns="http://www.w3.org/2000/svg">
<path fill-rule="evenodd" clip-rule="evenodd" d="M11.6174 4.71673C11.4581 4.70574 11.2979 4.7002 11.1372 4.7002C9.28733 4.7002 7.51323 5.43506 6.20517 6.74311C4.89711 8.05117 4.16225 9.82528 4.16225 11.6752V15.8439L3.34036 16.6657C3.17784 16.8283 3.06716 17.0354 3.02232 17.2609C2.97749 17.4864 3.00051 17.7201 3.08848 17.9325C3.17644 18.1448 3.3254 18.3264 3.51653 18.4541C3.70765 18.5819 3.93236 18.6501 4.16225 18.6501H18.1122C18.3421 18.6501 18.5668 18.5819 18.7579 18.4541C18.949 18.3264 19.098 18.1448 19.1859 17.9325C19.2739 17.7201 19.2969 17.4864 19.2521 17.2609C19.2073 17.0354 19.0966 16.8283 18.9341 16.6657L18.1122 15.8439V12.9894C14.4266 12.7882 11.5 9.73586 11.5 6C11.5 5.56167 11.5403 5.13274 11.6174 4.71673ZM8.67119 22.2786C9.32522 22.9327 10.2123 23.3001 11.1372 23.3001C12.0621 23.3001 12.9492 22.9327 13.6032 22.2786C14.2573 21.6246 14.6247 20.7376 14.6247 19.8126H7.64973C7.64973 20.7376 8.01716 21.6246 8.67119 22.2786Z" />
<path fill-rule="evenodd" clip-rule="evenodd" d="M18.5 11.7002C19.9587 11.7002 21.3576 11.1207 22.3891 10.0893C23.4205 9.05783 24 7.65889 24 6.2002C24 4.7415 23.4205 3.34256 22.3891 2.31111C21.3576 1.27966 19.9587 0.700195 18.5 0.700195C17.0413 0.700195 15.6424 1.27966 14.6109 2.31111C13.5795 3.34256 13 4.7415 13 6.2002C13 7.65889 13.5795 9.05783 14.6109 10.0893C15.6424 11.1207 17.0413 11.7002 18.5 11.7002ZM21.0486 5.31126C21.1738 5.18159 21.2431 5.00793 21.2415 4.82767C21.24 4.64741 21.1677 4.47498 21.0402 4.34751C20.9127 4.22004 20.7403 4.14774 20.56 4.14617C20.3798 4.1446 20.2061 4.2139 20.0764 4.33913L17.8125 6.60307L16.9236 5.71413C16.7939 5.5889 16.6202 5.5196 16.44 5.52117C16.2597 5.52274 16.0873 5.59504 15.9598 5.72251C15.8323 5.84998 15.76 6.02241 15.7585 6.20267C15.7569 6.38293 15.8262 6.55659 15.9514 6.68626L17.3264 8.06126C17.4554 8.19014 17.6302 8.26255 17.8125 8.26255C17.9948 8.26255 18.1696 8.19014 18.2986 8.06126L21.0486 5.31126Z" />
</svg>
