<svg viewBox="0 0 24 24" fill="currentColor" xmlns="http://www.w3.org/2000/svg">
<path fill-rule="evenodd" clip-rule="evenodd" d="M9.85511 4.7036C9.78261 4.70133 9.70997 4.7002 9.63721 4.7002C7.78733 4.7002 6.01323 5.43506 4.70517 6.74311C3.39711 8.05117 2.66225 9.82528 2.66225 11.6752V15.8439L1.84036 16.6657C1.67784 16.8283 1.56716 17.0354 1.52232 17.2609C1.47749 17.4864 1.50051 17.7201 1.58848 17.9325C1.67644 18.1448 1.8254 18.3264 2.01653 18.4541C2.20765 18.5819 2.43236 18.6501 2.66225 18.6501H16.6122C16.8421 18.6501 17.0668 18.5819 17.2579 18.4541C17.449 18.3264 17.598 18.1448 17.6859 17.9325C17.7739 17.7201 17.7969 17.4864 17.7521 17.2609C17.7073 17.0354 17.5966 16.8283 17.4341 16.6657L16.6122 15.8439V13.5827C12.7568 13.2397 9.73433 10.0011 9.73433 6.05653C9.73433 5.59471 9.77576 5.14256 9.85511 4.7036ZM7.17119 22.2786C7.82522 22.9327 8.71227 23.3001 9.63721 23.3001C10.5621 23.3001 11.4492 22.9327 12.1032 22.2786C12.7573 21.6246 13.1247 20.7376 13.1247 19.8126H6.14973C6.14973 20.7376 6.51716 21.6246 7.17119 22.2786Z" />
<path fill-rule="evenodd" clip-rule="evenodd" d="M17 11.7002C18.4587 11.7002 19.8576 11.1207 20.8891 10.0893C21.9205 9.05783 22.5 7.65889 22.5 6.2002C22.5 4.7415 21.9205 3.34256 20.8891 2.31111C19.8576 1.27966 18.4587 0.700195 17 0.700195C15.5413 0.700195 14.1424 1.27966 13.1109 2.31111C12.0795 3.34256 11.5 4.7415 11.5 6.2002C11.5 7.65889 12.0795 9.05783 13.1109 10.0893C14.1424 11.1207 15.5413 11.7002 17 11.7002ZM19.5486 5.31126C19.6738 5.18159 19.7431 5.00793 19.7415 4.82767C19.74 4.64741 19.6677 4.47498 19.5402 4.34751C19.4127 4.22004 19.2403 4.14774 19.06 4.14617C18.8798 4.1446 18.7061 4.2139 18.5764 4.33913L16.3125 6.60307L15.4236 5.71413C15.2939 5.5889 15.1202 5.5196 14.94 5.52117C14.7597 5.52274 14.5873 5.59504 14.4598 5.72251C14.3323 5.84998 14.26 6.02241 14.2585 6.20267C14.2569 6.38293 14.3262 6.55659 14.4514 6.68626L15.8264 8.06126C15.9554 8.19014 16.1302 8.26255 16.3125 8.26255C16.4948 8.26255 16.6696 8.19014 16.7986 8.06126L19.5486 5.31126Z" />
</svg>
