<svg xmlns="http://www.w3.org/2000/svg" viewBox="0 0 24 24" fill="currentColor">
  <path d="M12 2.4C10.0904 2.4 8.25909 3.15857 6.90883 4.50883C5.55857 5.85909 4.8 7.69044 4.8 9.6V13.9032L3.9516 14.7516C3.78383 14.9194 3.66958 15.1332 3.6233 15.366C3.57702 15.5987 3.60078 15.8399 3.69159 16.0592C3.78239 16.2784 3.93616 16.4658 4.13345 16.5977C4.33074 16.7295 4.5627 16.7999 4.8 16.8H19.2C19.4373 16.7999 19.6693 16.7295 19.8665 16.5977C20.0638 16.4658 20.2176 16.2784 20.3084 16.0592C20.3992 15.8399 20.423 15.5987 20.3767 15.366C20.3304 15.1332 20.2162 14.9194 20.0484 14.7516L19.2 13.9032V9.6C19.2 7.69044 18.4414 5.85909 17.0912 4.50883C15.7409 3.15857 13.9096 2.4 12 2.4V2.4ZM12 21.6C11.0452 21.6 10.1295 21.2207 9.45442 20.5456C8.77928 19.8705 8.4 18.9548 8.4 18H15.6C15.6 18.9548 15.2207 19.8705 14.5456 20.5456C13.8705 21.2207 12.9548 21.6 12 21.6Z" />
</svg>
