<svg viewBox="0 0 24 24" fill="currentColor" xmlns="http://www.w3.org/2000/svg">
  <path
    d="M10.8 5.7648C9.49166 5.12779 8.05518 4.79781 6.6 4.8C5.094 4.8 3.6684 5.148 2.4 5.7648V17.7648C3.70836 17.1278 5.14483 16.7979 6.6 16.8C8.6028 16.8 10.4616 17.412 12 18.462C13.5913 17.3763 15.4736 16.7969 17.4 16.8C18.906 16.8 20.3316 17.148 21.6 17.7648V5.7648C20.2917 5.12779 18.8552 4.79781 17.4 4.8C15.894 4.8 14.4684 5.148 13.2 5.7648V14.4C13.2 14.7183 13.0736 15.0235 12.8485 15.2485C12.6235 15.4736 12.3183 15.6 12 15.6C11.6817 15.6 11.3765 15.4736 11.1515 15.2485C10.9264 15.0235 10.8 14.7183 10.8 14.4V5.7648Z"
  />
</svg>
