<svg xmlns="http://www.w3.org/2000/svg" viewBox="0 0 24 24" fill="currentColor" class="w-6 h-6">
<path d="M18.221 1.99773C18.427 1.9988 18.6328 1.99986 18.8384 1.99986C19.3656 1.99984 19.8203 1.99982 20.1949 2.03043C20.5903 2.06273 20.9835 2.13404 21.3618 2.32684C21.9263 2.61446 22.3853 3.0734 22.6729 3.63789C22.8657 4.01627 22.937 4.40949 22.9693 4.80483C22.9999 5.1794 22.9999 5.63415 22.9999 6.16129V14.8384C22.9999 15.3655 22.9999 15.8203 22.9693 16.1949C22.937 16.5902 22.8657 16.9835 22.6729 17.3618C22.3853 17.9263 21.9263 18.3853 21.3618 18.6729C20.9835 18.8657 20.5903 18.937 20.1949 18.9693C19.5259 19.024 18.8485 19.0151 18.1741 19.0064C17.9238 19.0031 17.6739 18.9999 17.4251 18.9999C16.1105 18.9999 15.6616 19.01 15.2689 19.1293C14.8915 19.2439 14.5404 19.4318 14.2357 19.6822C13.7759 20.0602 13.4386 20.5973 13.1146 21.1133C13.0208 21.2625 12.9282 21.41 12.8341 21.5513C12.7085 21.7412 12.5188 21.8876 12.2897 21.957C11.8679 22.0847 11.4123 21.9212 11.1678 21.5546C11.0729 21.4122 10.9796 21.2636 10.8852 21.1133C10.5612 20.5973 10.2239 20.0602 9.76402 19.6822C9.45934 19.4318 9.10827 19.2439 8.7309 19.1293C8.33818 19.01 7.88926 18.9999 6.5747 18.9999C6.32582 18.9999 6.07596 19.0031 5.82569 19.0064C5.15124 19.0151 4.47386 19.024 3.80485 18.9693C3.40951 18.937 3.01629 18.8657 2.63791 18.6729C2.07342 18.3853 1.61448 17.9263 1.32686 17.3618C1.13407 16.9835 1.06275 16.5902 1.03045 16.1949C0.999847 15.8203 0.999862 15.3656 0.999879 14.8384V6.16131C0.999862 5.63418 0.999847 5.17939 1.03045 4.80483C1.06275 4.40949 1.13407 4.01627 1.32686 3.63789C1.61448 3.0734 2.07342 2.61446 2.63791 2.32684C3.01629 2.13404 3.40951 2.06273 3.80485 2.03043C4.17942 1.99982 4.63419 1.99984 5.16133 1.99986C5.36696 1.99986 5.57281 1.9988 5.77875 1.99773C6.62255 1.99338 7.46815 1.98902 8.30851 2.05768C9.03736 2.11723 9.67754 2.24304 10.2698 2.54483C10.9534 2.89312 11.5441 3.39214 11.9999 3.99985C12.4557 3.39214 13.0464 2.89312 13.7299 2.54483C14.3222 2.24304 14.9624 2.11723 15.6913 2.05768C16.5316 1.98902 17.3772 1.99338 18.221 1.99773Z"/>
</svg>
