<svg fill="currentColor" viewBox="0 0 24 24" xmlns="http://www.w3.org/2000/svg">
  <path
    fill-rule="evenodd"
    clip-rule="evenodd"
    d="M13.8626 3.46252C13.3875 1.51249 10.6125 1.51249 10.1374 3.46252C10.0665 3.75555 9.92742 4.02769 9.73146 4.2568C9.53549 4.48591 9.2882 4.66552 9.00971 4.78101C8.73122 4.89649 8.4294 4.9446 8.1288 4.92141C7.82821 4.89822 7.53733 4.80438 7.27985 4.64754C5.5648 3.60253 3.60224 5.56506 4.64727 7.28008C5.32229 8.3876 4.72352 9.83262 3.46348 10.1389C1.51217 10.6126 1.51217 13.3889 3.46348 13.8614C3.75659 13.9324 4.02878 14.0717 4.2579 14.2678C4.48701 14.4639 4.66657 14.7113 4.78195 14.99C4.89733 15.2686 4.94527 15.5706 4.92187 15.8712C4.89846 16.1719 4.80438 16.4628 4.64727 16.7202C3.60224 18.4353 5.5648 20.3978 7.27985 19.3528C7.53729 19.1957 7.82818 19.1016 8.12886 19.0782C8.42954 19.0548 8.73149 19.1027 9.01013 19.2181C9.28877 19.3335 9.53623 19.513 9.73234 19.7421C9.92845 19.9712 10.0677 20.2434 10.1387 20.5365C10.6125 22.4878 13.3888 22.4878 13.8613 20.5365C13.9326 20.2436 14.0719 19.9716 14.2681 19.7426C14.4642 19.5137 14.7116 19.3342 14.9902 19.2189C15.2688 19.1036 15.5706 19.0556 15.8712 19.0788C16.1718 19.1021 16.4627 19.1959 16.7201 19.3528C18.4352 20.3978 20.3978 18.4353 19.3527 16.7202C19.1959 16.4627 19.102 16.1719 19.0788 15.8713C19.0555 15.5707 19.1035 15.2689 19.2189 14.9903C19.3342 14.7118 19.5136 14.4644 19.7426 14.2682C19.9716 14.072 20.2436 13.9327 20.5365 13.8614C22.4878 13.3877 22.4878 10.6114 20.5365 10.1389C20.2434 10.0679 19.9712 9.92864 19.7421 9.73253C19.513 9.53642 19.3334 9.28897 19.2181 9.01033C19.1027 8.7317 19.0547 8.42975 19.0781 8.12908C19.1015 7.8284 19.1956 7.53751 19.3527 7.28008C20.3978 5.56506 18.4352 3.60253 16.7201 4.64754C16.4627 4.80465 16.1718 4.89873 15.8711 4.92213C15.5705 4.94554 15.2685 4.8976 14.9899 4.78222C14.7112 4.66684 14.4638 4.48728 14.2677 4.25817C14.0715 4.02906 13.9323 3.75688 13.8613 3.46377L13.8626 3.46252ZM12 15.7502C12.9946 15.7502 13.9485 15.3551 14.6517 14.6518C15.355 13.9486 15.7501 12.9947 15.7501 12.0002C15.7501 11.0056 15.355 10.0517 14.6517 9.34846C13.9485 8.64519 12.9946 8.2501 12 8.2501C11.0054 8.2501 10.0516 8.64519 9.34827 9.34846C8.64498 10.0517 8.24988 11.0056 8.24988 12.0002C8.24988 12.9947 8.64498 13.9486 9.34827 14.6518C10.0516 15.3551 11.0054 15.7502 12 15.7502V15.7502Z"
  />
</svg>
