<svg class="w-6 h-6" viewBox="0 0 24 24" fill="currentColor" xmlns="http://www.w3.org/2000/svg">
<path fill-rule="evenodd" clip-rule="evenodd" d="M4 0C1.79086 0 0 1.79086 0 4V20C0 22.2091 1.79086 24 4 24H20C22.2091 24 24 22.2091 24 20V4C24 1.79086 22.2091 0 20 0H4ZM4 3C3.44772 3 3 3.44772 3 4C3 4.55228 3.44772 5 4 5H8C8.55228 5 9 4.55228 9 4C9 3.44772 8.55228 3 8 3H4ZM15.0168 5.68342C15.4543 5.24583 16.0478 5 16.6667 5C17.2855 5 17.879 5.24583 18.3166 5.68342C18.7542 6.121 19 6.71449 19 7.33333C19 7.95217 18.7542 8.54566 18.3166 8.98325C17.879 9.42083 17.2855 9.66667 16.6667 9.66667C16.0478 9.66667 15.4543 9.42083 15.0168 8.98325C14.5792 8.54566 14.3333 7.95217 14.3333 7.33333C14.3333 6.71449 14.5792 6.121 15.0168 5.68342ZM16.6667 3C15.5174 3 14.4152 3.45655 13.6025 4.2692C12.7899 5.08186 12.3333 6.18406 12.3333 7.33333C12.3333 8.4826 12.7899 9.5848 13.6025 10.3975C14.4152 11.2101 15.5174 11.6667 16.6667 11.6667C17.8159 11.6667 18.9181 11.2101 19.7308 10.3975C20.5435 9.5848 21 8.4826 21 7.33333C21 6.18406 20.5435 5.08186 19.7308 4.2692C18.9181 3.45655 17.8159 3 16.6667 3ZM4 7C3.44772 7 3 7.44772 3 8C3 8.55228 3.44772 9 4 9H9.33333C9.88562 9 10.3333 8.55228 10.3333 8C10.3333 7.44772 9.88562 7 9.33333 7H4ZM4.62469 12.5525C4.19343 12.2075 3.56414 12.2774 3.21913 12.7086C2.87412 13.1399 2.94404 13.7692 3.3753 14.1142L10.042 19.4475C10.4072 19.7397 10.9261 19.7397 11.2914 19.4475L14.0537 17.2377L19.4453 20.8321C19.9048 21.1384 20.5257 21.0142 20.8321 20.5547C21.1384 20.0952 21.0142 19.4743 20.5547 19.1679L14.5547 15.1679C14.1924 14.9264 13.7154 14.9471 13.3753 15.2191L10.6667 17.386L4.62469 12.5525Z"/>
</svg>
