<svg class="w-6 h-6" viewBox="0 0 24 24" fill="currentColor" xmlns="http://www.w3.org/2000/svg">
<path d="M6.23361 2.38794C6.72915 2.4076 7.33421 2.47484 8.07075 2.55669L9.17128 2.67896C9.42325 2.70691 9.61056 2.72769 9.77956 2.76129C11.526 3.10853 12.8326 4.56838 12.9849 6.34247C12.9996 6.51414 12.9996 6.7026 12.9995 6.95611V7.39939C12.9995 7.95944 12.9995 8.23947 12.8905 8.45338C12.7947 8.64154 12.6417 8.79452 12.4535 8.8904C12.2396 8.99939 11.9596 8.99939 11.3995 8.99939H8.99951C7.34266 8.99939 5.99951 10.3425 5.99951 11.9994C5.99951 13.6562 7.34266 14.9994 8.99951 14.9994H11.3995C11.9596 14.9994 12.2396 14.9994 12.4535 15.1084C12.6417 15.2043 12.7947 15.3572 12.8905 15.5454C12.9995 15.7593 12.9995 16.0393 12.9995 16.5994V17.0426C12.9996 17.2961 12.9996 17.4846 12.9849 17.6563C12.8326 19.4304 11.526 20.8902 9.77956 21.2374C9.61058 21.271 9.42324 21.2918 9.17135 21.3198L8.10882 21.4378L8.10685 21.438L8.07065 21.4421C7.33415 21.5239 6.72912 21.5911 6.2336 21.6108C5.72226 21.6311 5.24498 21.6059 4.7804 21.4573C3.69676 21.1105 2.81207 20.3187 2.34775 19.2799C2.14869 18.8346 2.07099 18.363 2.03468 17.8526C1.9995 17.3579 1.9995 16.7491 1.99951 16.0081V7.9907C1.9995 7.24964 1.9995 6.64084 2.03468 6.14616C2.07099 5.6357 2.14869 5.16412 2.34775 4.7188C2.81207 3.68008 3.69676 2.88824 4.7804 2.54147C5.24498 2.39281 5.72226 2.36766 6.23361 2.38794Z"/>
<path d="M15.2924 6.29228C15.6829 5.90176 16.3161 5.90176 16.7066 6.29228L21.7066 11.2923C22.0971 11.6828 22.0971 12.316 21.7066 12.7065L16.7066 17.7065C16.3161 18.097 15.6829 18.097 15.2924 17.7065C14.9019 17.316 14.9019 16.6828 15.2924 16.2923L18.5853 12.9994H8.99951C8.44723 12.9994 7.99951 12.5517 7.99951 11.9994C7.99951 11.4471 8.44723 10.9994 8.99951 10.9994H18.5853L15.2924 7.7065C14.9019 7.31597 14.9019 6.68281 15.2924 6.29228Z"/>
</svg>
