<svg
  viewBox="0 0 24 24"
  class="w-6 h-6"
  fill="currentColor"
  xmlns="http://www.w3.org/2000/svg"
>
  <g clip-path="url(#clip0_1151_31665)">
    <path
      d="M4.98788 11.427C4.98785 11.293 5.0143 11.1603 5.0657 11.0365C5.1171 10.9127 5.19244 10.8003 5.28739 10.7058C5.38235 10.6112 5.49504 10.5363 5.619 10.4855C5.74296 10.4346 5.87574 10.4087 6.00972 10.4094L7.70383 10.4149C7.97395 10.4149 8.23301 10.5223 8.42401 10.7133C8.61502 10.9044 8.72232 11.1636 8.72232 11.4338V17.8422C8.91316 17.7856 9.15792 17.7253 9.42605 17.6624C9.61222 17.6186 9.77813 17.5131 9.89689 17.3632C10.0156 17.2132 10.0803 17.0275 10.0803 16.8362V8.88707C10.0803 8.61682 10.1876 8.35763 10.3786 8.16651C10.5696 7.97539 10.8287 7.868 11.0988 7.86796H12.7964C13.0665 7.86802 13.3256 7.97542 13.5166 8.16654C13.7076 8.35765 13.8149 8.61683 13.8149 8.88707V16.2649C13.8149 16.2649 14.2397 16.0928 14.6538 15.918C14.8076 15.8529 14.9388 15.744 15.0311 15.6048C15.1234 15.4656 15.1727 15.3023 15.1728 15.1353V6.33945C15.1728 6.20566 15.1991 6.07318 15.2503 5.94957C15.3015 5.82596 15.3765 5.71365 15.471 5.61904C15.5656 5.52442 15.6779 5.44937 15.8014 5.39816C15.925 5.34696 16.0574 5.32059 16.1911 5.32058H17.8887C18.1588 5.32058 18.4179 5.42793 18.6089 5.619C18.7999 5.81007 18.9072 6.06922 18.9073 6.33945V13.5823C20.3789 12.5154 21.8704 11.2321 23.054 9.68904C23.2258 9.46505 23.3394 9.20203 23.3848 8.92343C23.4302 8.64483 23.4059 8.35932 23.3142 8.09238C22.5134 5.75758 21.0112 3.72723 19.013 2.27894C17.0149 0.830642 14.6183 0.0350996 12.1511 0.00108791C5.4979 -0.0883195 -0.000595993 5.34469 5.75687e-05 12.0011C-0.00647503 14.1074 0.543066 16.1781 1.59311 18.0038C1.73792 18.2536 1.95096 18.4568 2.2072 18.5895C2.46345 18.7223 2.75225 18.7792 3.03969 18.7535C3.36083 18.7252 3.76065 18.6853 4.23595 18.6295C4.44283 18.6059 4.63382 18.5071 4.77256 18.3517C4.91129 18.1964 4.98807 17.9955 4.98828 17.7872V11.427"
    />
    <path
      d="M4.95125 21.7051C6.74054 23.0072 8.85502 23.7888 11.0608 23.9634C13.2665 24.138 15.4776 23.6988 17.4493 22.6943C19.421 21.6899 21.0765 20.1593 22.2327 18.2721C23.3889 16.3848 24.0006 14.2144 24.0003 12.0009C24.0003 11.7246 23.9875 11.4514 23.969 11.1797C19.5867 17.7177 11.4953 20.7746 4.95117 21.7053"
    />
  </g>
  <defs>
    <clipPath id="clip0_1151_31665">
      <rect width="24" height="24" fill="white" />
    </clipPath>
  </defs>
</svg>
