<svg xmlns="http://www.w3.org/2000/svg" viewBox="0 0 24 24" fill="currentColor">
  <path fill-rule="evenodd" clip-rule="evenodd" d="M9.9084 3.7188C10.8264 2.0868 13.1748 2.0868 14.0916 3.7188L20.7876 15.6228C21.6876 17.2236 20.532 19.1988 18.6972 19.1988H5.304C3.468 19.1988 2.3124 17.2236 3.2124 15.6228L9.9084 3.7188ZM13.2 15.6C13.2 15.9183 13.0736 16.2235 12.8485 16.4485C12.6235 16.6736 12.3183 16.8 12 16.8C11.6817 16.8 11.3765 16.6736 11.1515 16.4485C10.9264 16.2235 10.8 15.9183 10.8 15.6C10.8 15.2817 10.9264 14.9765 11.1515 14.7515C11.3765 14.5264 11.6817 14.4 12 14.4C12.3183 14.4 12.6235 14.5264 12.8485 14.7515C13.0736 14.9765 13.2 15.2817 13.2 15.6V15.6ZM12 6C11.6817 6 11.3765 6.12642 11.1515 6.35147C10.9264 6.57651 10.8 6.88174 10.8 7.2V10.8C10.8 11.1183 10.9264 11.4235 11.1515 11.6485C11.3765 11.8736 11.6817 12 12 12C12.3183 12 12.6235 11.8736 12.8485 11.6485C13.0736 11.4235 13.2 11.1183 13.2 10.8V7.2C13.2 6.88174 13.0736 6.57651 12.8485 6.35147C12.6235 6.12642 12.3183 6 12 6Z" />
</svg>
