<svg viewBox="0 0 24 24" fill="none" xmlns="http://www.w3.org/2000/svg">
  <path
    d="M4.85714 2C4.09938 2 3.37266 2.30102 2.83684 2.83684C2.30102 3.37266 2 4.09938 2 4.85714V7.71429C2 8.47205 2.30102 9.19877 2.83684 9.73459C3.37266 10.2704 4.09938 10.5714 4.85714 10.5714H7.71429C8.47205 10.5714 9.19877 10.2704 9.73459 9.73459C10.2704 9.19877 10.5714 8.47205 10.5714 7.71429V4.85714C10.5714 4.09938 10.2704 3.37266 9.73459 2.83684C9.19877 2.30102 8.47205 2 7.71429 2H4.85714ZM4.85714 13.4286C4.09938 13.4286 3.37266 13.7296 2.83684 14.2654C2.30102 14.8012 2 15.528 2 16.2857V19.1429C2 19.9006 2.30102 20.6273 2.83684 21.1632C3.37266 21.699 4.09938 22 4.85714 22H7.71429C8.47205 22 9.19877 21.699 9.73459 21.1632C10.2704 20.6273 10.5714 19.9006 10.5714 19.1429V16.2857C10.5714 15.528 10.2704 14.8012 9.73459 14.2654C9.19877 13.7296 8.47205 13.4286 7.71429 13.4286H4.85714ZM13.4286 4.85714C13.4286 4.09938 13.7296 3.37266 14.2654 2.83684C14.8012 2.30102 15.528 2 16.2857 2H19.1429C19.9006 2 20.6273 2.30102 21.1632 2.83684C21.699 3.37266 22 4.09938 22 4.85714V7.71429C22 8.47205 21.699 9.19877 21.1632 9.73459C20.6273 10.2704 19.9006 10.5714 19.1429 10.5714H16.2857C15.528 10.5714 14.8012 10.2704 14.2654 9.73459C13.7296 9.19877 13.4286 8.47205 13.4286 7.71429V4.85714ZM13.4286 16.2857C13.4286 15.528 13.7296 14.8012 14.2654 14.2654C14.8012 13.7296 15.528 13.4286 16.2857 13.4286H19.1429C19.9006 13.4286 20.6273 13.7296 21.1632 14.2654C21.699 14.8012 22 15.528 22 16.2857V19.1429C22 19.9006 21.699 20.6273 21.1632 21.1632C20.6273 21.699 19.9006 22 19.1429 22H16.2857C15.528 22 14.8012 21.699 14.2654 21.1632C13.7296 20.6273 13.4286 19.9006 13.4286 19.1429V16.2857Z"
    fill="black"
  />
</svg>
