<svg viewBox="0 0 24 24" xmlns="http://www.w3.org/2000/svg" fill="currentColor">
  <path
    fill-rule="evenodd"
    clip-rule="evenodd"
    d="M13.56 1.2552C13.8036 1.33181 14.0164 1.48414 14.1675 1.69003C14.3186 1.89592 14.4 2.14463 14.4 2.4V8.4H19.2C19.4195 8.3999 19.6348 8.46001 19.8225 8.57379C20.0103 8.68757 20.1632 8.85065 20.2646 9.04529C20.3661 9.23993 20.4122 9.45868 20.398 9.67772C20.3838 9.89676 20.3098 10.1077 20.184 10.2876L11.784 22.2876C11.6378 22.497 11.4286 22.6544 11.1868 22.7367C10.945 22.819 10.6833 22.8221 10.4396 22.7454C10.196 22.6687 9.9832 22.5162 9.83219 22.3102C9.68118 22.1042 9.59984 21.8554 9.6 21.6V15.6H4.8C4.5805 15.6001 4.36517 15.54 4.17746 15.4262C3.98975 15.3124 3.83684 15.1494 3.73537 14.9547C3.63391 14.7601 3.58777 14.5413 3.60199 14.3223C3.6162 14.1032 3.69023 13.8923 3.816 13.7124L12.216 1.7124C12.3624 1.50334 12.5717 1.34641 12.8134 1.26441C13.0551 1.18241 13.3166 1.1796 13.56 1.2564V1.2552Z"
  />
</svg>
