<svg
  width="24"
  height="24"
  viewBox="0 0 24 24"
  fill="currentColor"
  stroke="none"
  xmlns="http://www.w3.org/2000/svg"
>
  <path
    d="M8 8V7L8 3C8 2.44772 8.44772 2 9 2C9.55228 2 10 2.44772 10 3V7V8H14V7V3C14 2.44772 14.4477 2 15 2C15.5523 2 16 2.44772 16 3V7V8H18.1337C18.6121 8 19 8.40872 19 8.9129V14.6237C19 18.6975 15.866 22 12 22C8.13401 22 5 18.6975 5 14.6237V8.9129C5 8.40872 5.38787 8 5.86634 8L8 8ZM12 20C14.664 20 17 17.6929 17 14.6237V10L7 10L7 14.6237C7 17.6929 9.33596 20 12 20Z"
  />
</svg>
