<svg xmlns="http://www.w3.org/2000/svg" fill="none" viewBox="0 0 24 24" stroke-width="1.5" stroke="currentColor" class="w-6 h-6">
<path d="M15.0103 4.4665C15.366 4.56179 15.577 4.92735 15.4817 5.28299C15.3864 5.63864 15.0209 5.84969 14.6652 5.7544L14.3949 5.68196C15.5275 8.5521 14.4192 11.8954 11.6667 13.4846C9.84298 14.5375 7.71307 14.5797 5.92725 13.7874C5.59069 13.6381 5.4389 13.2443 5.58821 12.9077C5.73752 12.5712 6.13139 12.4194 6.46795 12.5687C7.88097 13.1955 9.561 13.1607 11 12.3299C13.104 11.1152 13.9911 8.60221 13.2338 6.38705L13.1723 6.61633C13.077 6.97197 12.7115 7.18303 12.3558 7.08773C12.0002 6.99244 11.7891 6.62688 11.8844 6.27124L12.3725 4.44987C12.4678 4.09422 12.8333 3.88317 13.189 3.97846L15.0103 4.4665Z" fill="black"/>
<path d="M11.0727 2.21211C11.4093 2.36142 11.561 2.75529 11.4117 3.09185C11.2624 3.42841 10.8686 3.5802 10.532 3.43089C9.11898 2.80401 7.43894 2.83886 5.99996 3.66966C3.89597 4.8844 3.00883 7.39737 3.7662 9.61254L3.82764 9.38322C3.92294 9.02757 4.2885 8.81652 4.64414 8.91181C4.99979 9.00711 5.21084 9.37267 5.11555 9.72831L4.62751 11.5497C4.53222 11.9053 4.16666 12.1164 3.81101 12.0211L1.98965 11.533C1.634 11.4378 1.42295 11.0722 1.51824 10.7166C1.61354 10.3609 1.9791 10.1499 2.33474 10.2451L2.60507 10.3176C1.47243 7.44744 2.58078 4.10412 5.3333 2.51496C7.15696 1.46206 9.28687 1.41984 11.0727 2.21211Z" fill="black"/>
</svg>
