<svg class="w-6 h-6" viewBox="0 0 24 24" fill="currentColor" xmlns="http://www.w3.org/2000/svg">
    <path fill-rule="evenodd" clip-rule="evenodd" d="M12.1803 14.1635C12.4625 14.3073 12.692 14.5368 12.8358 14.819C12.9889 15.1194 12.9994 15.4476 12.9993 15.7769C12.9993 15.7847 12.9993 15.7924 12.9993 15.8C12.9993 17.2744 12.9987 18.7488 12.9993 20.2231C12.9993 20.3422 12.9994 20.4845 12.9891 20.6098C12.9773 20.755 12.9468 20.963 12.8358 21.181C12.692 21.4632 12.4625 21.6927 12.1803 21.8365C11.9623 21.9476 11.7543 21.978 11.6091 21.9899C11.4838 22.0001 11.3415 22.0001 11.2224 22C8.40697 21.999 5.59153 21.999 2.77608 22C2.65682 22.0001 2.51425 22.0001 2.38863 21.9898C2.24291 21.9778 2.0345 21.9472 1.81622 21.8356C1.53362 21.6911 1.30354 21.46 1.16035 21.1767C1.05005 20.9585 1.02014 20.7506 1.00877 20.6046C0.999005 20.4791 0.99971 20.3369 1.0003 20.2185C1.00545 19.1792 0.974471 18.0653 1.37988 17.0866C1.88735 15.8614 2.86072 14.8881 4.08586 14.3806C4.59556 14.1695 5.13384 14.0819 5.74258 14.0404C6.33459 14 7.062 14 7.96376 14C9.04998 14 10.1362 14.0004 11.2224 14C11.5517 13.9999 11.8798 14.0104 12.1803 14.1635Z" />
    <path fill-rule="evenodd" clip-rule="evenodd" d="M22.7064 15.2929C23.0969 15.6834 23.0969 16.3166 22.7064 16.7071L18.7064 20.7071C18.3159 21.0976 17.6827 21.0976 17.2922 20.7071L15.2922 18.7071C14.9016 18.3166 14.9016 17.6834 15.2922 17.2929C15.6827 16.9024 16.3159 16.9024 16.7064 17.2929L17.9993 18.5858L21.2922 15.2929C21.6827 14.9024 22.3159 14.9024 22.7064 15.2929Z" />
    <path fill-rule="evenodd" clip-rule="evenodd" d="M14.5723 2.91554C14.7796 2.40361 15.3626 2.1566 15.8745 2.36382C17.705 3.10481 18.9993 4.90006 18.9993 7C18.9993 9.09994 17.705 10.8952 15.8745 11.6362C15.3626 11.8434 14.7796 11.5964 14.5723 11.0845C14.3651 10.5725 14.6121 9.98953 15.1241 9.7823C16.2253 9.33652 16.9993 8.25744 16.9993 7C16.9993 5.74256 16.2253 4.66348 15.1241 4.2177C14.6121 4.01047 14.3651 3.42748 14.5723 2.91554Z" />
    <path fill-rule="evenodd" clip-rule="evenodd" d="M4.49927 7C4.49927 4.23858 6.73785 2 9.49927 2C12.2607 2 14.4993 4.23858 14.4993 7C14.4993 9.76142 12.2607 12 9.49927 12C6.73785 12 4.49927 9.76142 4.49927 7Z" />
</svg>
