<svg
  width="24"
  height="24"
  viewBox="0 0 24 24"
  fill="none"
  xmlns="http://www.w3.org/2000/svg"
>
  <path
    fill-rule="evenodd"
    clip-rule="evenodd"
    d="M10 5C9.34339 5 8.69321 5.12933 8.08658 5.3806C7.47995 5.63188 6.92876 6.00017 6.46447 6.46447C6.00017 6.92876 5.63188 7.47995 5.3806 8.08658C5.12933 8.69321 5 9.34339 5 10C5 10.6566 5.12933 11.3068 5.3806 11.9134C5.63188 12.52 6.00017 13.0712 6.46447 13.5355C6.63214 13.7032 6.81114 13.8584 7 14C7 13.0807 7.18106 12.1705 7.53284 11.3212C7.88463 10.4719 8.40024 9.70026 9.05025 9.05025C9.70026 8.40024 10.4719 7.88463 11.3212 7.53284C12.1705 7.18106 13.0807 7 14 7C14 7 14 7 14 7C13.8589 6.81181 13.7038 6.63276 13.5355 6.46447C12.5979 5.52678 11.3261 5 10 5ZM16.5277 7.47231C16.1793 6.57251 15.6452 5.74574 14.9497 5.05025C13.637 3.7375 11.8565 3 10 3C9.08075 3 8.1705 3.18106 7.32122 3.53284C6.47194 3.88463 5.70026 4.40024 5.05025 5.05025C4.40024 5.70026 3.88463 6.47194 3.53284 7.32122C3.18106 8.1705 3 9.08075 3 10C3 10.9193 3.18106 11.8295 3.53284 12.6788C3.88463 13.5281 4.40024 14.2997 5.05025 14.9497C5.70026 15.5998 6.47194 16.1154 7.32122 16.4672C7.37137 16.4879 7.42174 16.5081 7.47231 16.5277C7.49189 16.5783 7.51207 16.6286 7.53284 16.6788C7.88463 17.5281 8.40024 18.2997 9.05025 18.9497C9.70026 19.5998 10.4719 20.1154 11.3212 20.4672C12.1705 20.8189 13.0807 21 14 21C15.8565 21 17.637 20.2625 18.9497 18.9497C20.2625 17.637 21 15.8565 21 14C21 12.1435 20.2625 10.363 18.9497 9.05025C18.2543 8.35477 17.4275 7.82074 16.5277 7.47231ZM12.0866 9.3806C12.6932 9.12933 13.3434 9 14 9C15.3261 9 16.5979 9.52678 17.5355 10.4645C18.4732 11.4021 19 12.6739 19 14C19 15.3261 18.4732 16.5979 17.5355 17.5355C16.5979 18.4732 15.3261 19 14 19C13.3434 19 12.6932 18.8707 12.0866 18.6194C11.48 18.3681 10.9288 17.9998 10.4645 17.5355C10.0002 17.0712 9.63188 16.52 9.3806 15.9134C9.12933 15.3068 9 14.6566 9 14C9 13.3434 9.12933 12.6932 9.3806 12.0866C9.63188 11.48 10.0002 10.9288 10.4645 10.4645C10.9288 10.0002 11.48 9.63188 12.0866 9.3806Z"
    fill="black"
  />
</svg>
