<svg viewBox="0 0 24 24" fill="currentColor" class="w-6 h-6" xmlns="http://www.w3.org/2000/svg">
    <path d="M22 5.4227C21.2642 5.74937 20.4733 5.96937 19.6433 6.06853C20.4908 5.56103 21.1417 4.75687 21.4475 3.79854C20.655 4.26854 19.7767 4.6102 18.8417 4.79437C18.0942 3.99687 17.0267 3.49854 15.8467 3.49854C13.1975 3.49854 11.2508 5.9702 11.8492 8.53603C8.44 8.3652 5.41667 6.73187 3.3925 4.24937C2.3175 6.09354 2.835 8.50603 4.66167 9.7277C3.99 9.70603 3.35667 9.52187 2.80417 9.21437C2.75917 11.1152 4.12167 12.8935 6.095 13.2894C5.5175 13.446 4.885 13.4827 4.24167 13.3594C4.76333 14.9894 6.27833 16.1752 8.075 16.2085C6.35 17.561 4.17667 18.1652 2 17.9085C3.81583 19.0727 5.97333 19.7519 8.29 19.7519C15.9083 19.7519 20.2125 13.3177 19.9525 7.54687C20.7542 6.9677 21.45 6.2452 22 5.4227Z" />
</svg>
