<svg viewBox="0 0 24 24" xmlns="http://www.w3.org/2000/svg" fill="currentColor">
  <path
    d="M15.6 7.2C15.6 8.15478 15.2207 9.07045 14.5456 9.74559C13.8705 10.4207 12.9548 10.8 12 10.8C11.0452 10.8 10.1295 10.4207 9.45442 9.74559C8.77929 9.07045 8.4 8.15478 8.4 7.2C8.4 6.24522 8.77929 5.32955 9.45442 4.65442C10.1295 3.97929 11.0452 3.6 12 3.6C12.9548 3.6 13.8705 3.97929 14.5456 4.65442C15.2207 5.32955 15.6 6.24522 15.6 7.2V7.2ZM21.6 9.6C21.6 10.2365 21.3471 10.847 20.8971 11.2971C20.447 11.7471 19.8365 12 19.2 12C18.5635 12 17.953 11.7471 17.5029 11.2971C17.0529 10.847 16.8 10.2365 16.8 9.6C16.8 8.96348 17.0529 8.35303 17.5029 7.90294C17.953 7.45286 18.5635 7.2 19.2 7.2C19.8365 7.2 20.447 7.45286 20.8971 7.90294C21.3471 8.35303 21.6 8.96348 21.6 9.6V9.6ZM16.8 18C16.8 16.727 16.2943 15.5061 15.3941 14.6059C14.4939 13.7057 13.273 13.2 12 13.2C10.727 13.2 9.50606 13.7057 8.60589 14.6059C7.70571 15.5061 7.2 16.727 7.2 18V21.6H16.8V18ZM7.2 9.6C7.2 10.2365 6.94714 10.847 6.49706 11.2971C6.04697 11.7471 5.43652 12 4.8 12C4.16348 12 3.55303 11.7471 3.10294 11.2971C2.65286 10.847 2.4 10.2365 2.4 9.6C2.4 8.96348 2.65286 8.35303 3.10294 7.90294C3.55303 7.45286 4.16348 7.2 4.8 7.2C5.43652 7.2 6.04697 7.45286 6.49706 7.90294C6.94714 8.35303 7.2 8.96348 7.2 9.6V9.6ZM19.2 21.6V18C19.2017 16.7799 18.892 15.5796 18.3 14.5128C18.832 14.3767 19.3881 14.3638 19.9258 14.4753C20.4636 14.5867 20.9687 14.8195 21.4028 15.1559C21.8369 15.4923 22.1884 15.9234 22.4306 16.4163C22.6727 16.9092 22.7991 17.4508 22.8 18V21.6H19.2ZM5.7 14.5128C5.1081 15.5797 4.79832 16.7799 4.8 18V21.6H1.2V18C1.19977 17.4504 1.32536 16.9081 1.56714 16.4146C1.80892 15.9211 2.16047 15.4895 2.59486 15.1529C3.02925 14.8163 3.53494 14.5836 4.07317 14.4726C4.61141 14.3617 5.1679 14.3754 5.7 14.5128V14.5128Z"
  />
</svg>
