<svg viewBox="0 0 24 24" fill="none" xmlns="http://www.w3.org/2000/svg">
  <path
    fill-rule="evenodd"
    clip-rule="evenodd"
    d="M12 10.4C12.7956 10.4 13.5587 10.0629 14.1213 9.46274C14.6839 8.86263 15 8.04869 15 7.2C15 6.35131 14.6839 5.53737 14.1213 4.93726C13.5587 4.33714 12.7956 4 12 4C11.2044 4 10.4413 4.33714 9.87868 4.93726C9.31607 5.53737 9 6.35131 9 7.2C9 8.04869 9.31607 8.86263 9.87868 9.46274C10.4413 10.0629 11.2044 10.4 12 10.4ZM5 20C5 19.0195 5.18106 18.0485 5.53284 17.1426C5.88463 16.2367 6.40024 15.4136 7.05025 14.7203C7.70026 14.0269 8.47194 13.4769 9.32122 13.1017C10.1705 12.7265 11.0807 12.5333 12 12.5333C12.9193 12.5333 13.8295 12.7265 14.6788 13.1017C15.5281 13.4769 16.2997 14.0269 16.9497 14.7203C17.5998 15.4136 18.1154 16.2367 18.4672 17.1426C18.8189 18.0485 19 19.0195 19 20H5Z"
    fill="black"
  />
</svg>
