<svg
  viewBox="0 0 24 24"
  xmlns="http://www.w3.org/2000/svg"
  stroke="currentColor"
  fill="currentColor"
>
  <path
    d="M17 20H22V18C22 17.3765 21.8057 16.7686 21.4441 16.2606C21.0826 15.7527 20.5718 15.37 19.9827 15.1658C19.3937 14.9615 18.7556 14.9459 18.1573 15.121C17.5589 15.2962 17.03 15.6534 16.644 16.143M17 20H7ZM17 20V18C17 17.344 16.874 16.717 16.644 16.143M7 20H2V18C2.00005 17.3765 2.19434 16.7686 2.55586 16.2606C2.91739 15.7527 3.42819 15.37 4.01725 15.1658C4.60632 14.9615 5.24438 14.9459 5.84274 15.121C6.4411 15.2962 6.97003 15.6534 7.356 16.143M7 20V18C7 17.344 7.126 16.717 7.356 16.143M7.356 16.143C7.72736 15.215 8.36825 14.4195 9.196 13.8591C10.0238 13.2988 11.0004 12.9993 12 12.9993C12.9996 12.9993 13.9762 13.2988 14.804 13.8591C15.6318 14.4195 16.2726 15.215 16.644 16.143M15 7C15 7.79565 14.6839 8.55871 14.1213 9.12132C13.5587 9.68393 12.7956 10 12 10C11.2044 10 10.4413 9.68393 9.87868 9.12132C9.31607 8.55871 9 7.79565 9 7C9 6.20435 9.31607 5.44129 9.87868 4.87868C10.4413 4.31607 11.2044 4 12 4C12.7956 4 13.5587 4.31607 14.1213 4.87868C14.6839 5.44129 15 6.20435 15 7V7ZM21 10C21 10.5304 20.7893 11.0391 20.4142 11.4142C20.0391 11.7893 19.5304 12 19 12C18.4696 12 17.9609 11.7893 17.5858 11.4142C17.2107 11.0391 17 10.5304 17 10C17 9.46957 17.2107 8.96086 17.5858 8.58579C17.9609 8.21071 18.4696 8 19 8C19.5304 8 20.0391 8.21071 20.4142 8.58579C20.7893 8.96086 21 9.46957 21 10ZM7 10C7 10.5304 6.78929 11.0391 6.41421 11.4142C6.03914 11.7893 5.53043 12 5 12C4.46957 12 3.96086 11.7893 3.58579 11.4142C3.21071 11.0391 3 10.5304 3 10C3 9.46957 3.21071 8.96086 3.58579 8.58579C3.96086 8.21071 4.46957 8 5 8C5.53043 8 6.03914 8.21071 6.41421 8.58579C6.78929 8.96086 7 9.46957 7 10Z"
  />
  <path
    d="M17 20H22V18C22 17.3765 21.8057 16.7686 21.4441 16.2606C21.0826 15.7527 20.5718 15.37 19.9827 15.1658C19.3937 14.9615 18.7556 14.9459 18.1573 15.121C17.5589 15.2962 17.03 15.6534 16.644 16.143M17 20H7M17 20V18C17 17.344 16.874 16.717 16.644 16.143M7 20H2V18C2.00005 17.3765 2.19434 16.7686 2.55586 16.2606C2.91739 15.7527 3.42819 15.37 4.01725 15.1658C4.60632 14.9615 5.24438 14.9459 5.84274 15.121C6.4411 15.2962 6.97003 15.6534 7.356 16.143M7 20V18C7 17.344 7.126 16.717 7.356 16.143M7.356 16.143C7.72736 15.215 8.36825 14.4195 9.196 13.8591C10.0238 13.2988 11.0004 12.9993 12 12.9993C12.9996 12.9993 13.9762 13.2988 14.804 13.8591C15.6318 14.4195 16.2726 15.215 16.644 16.143M15 7C15 7.79565 14.6839 8.55871 14.1213 9.12132C13.5587 9.68393 12.7956 10 12 10C11.2044 10 10.4413 9.68393 9.87868 9.12132C9.31607 8.55871 9 7.79565 9 7C9 6.20435 9.31607 5.44129 9.87868 4.87868C10.4413 4.31607 11.2044 4 12 4C12.7956 4 13.5587 4.31607 14.1213 4.87868C14.6839 5.44129 15 6.20435 15 7V7ZM21 10C21 10.5304 20.7893 11.0391 20.4142 11.4142C20.0391 11.7893 19.5304 12 19 12C18.4696 12 17.9609 11.7893 17.5858 11.4142C17.2107 11.0391 17 10.5304 17 10C17 9.46957 17.2107 8.96086 17.5858 8.58579C17.9609 8.21071 18.4696 8 19 8C19.5304 8 20.0391 8.21071 20.4142 8.58579C20.7893 8.96086 21 9.46957 21 10ZM7 10C7 10.5304 6.78929 11.0391 6.41421 11.4142C6.03914 11.7893 5.53043 12 5 12C4.46957 12 3.96086 11.7893 3.58579 11.4142C3.21071 11.0391 3 10.5304 3 10C3 9.46957 3.21071 8.96086 3.58579 8.58579C3.96086 8.21071 4.46957 8 5 8C5.53043 8 6.03914 8.21071 6.41421 8.58579C6.78929 8.96086 7 9.46957 7 10Z"
    stroke-width="2"
    stroke-linecap="round"
    stroke-linejoin="round"
  />
  <rect x="7" y="16" width="10" height="4" />
</svg>
