<svg viewBox="0 0 24 24" fill="none" xmlns="http://www.w3.org/2000/svg">
  <path
    d="M11 8C11 8.79565 10.6839 9.55871 10.1213 10.1213C9.55871 10.6839 8.79565 11 8 11C7.20435 11 6.44129 10.6839 5.87868 10.1213C5.31607 9.55871 5 8.79565 5 8C5 7.20435 5.31607 6.44129 5.87868 5.87868C6.44129 5.31607 7.20435 5 8 5C8.79565 5 9.55871 5.31607 10.1213 5.87868C10.6839 6.44129 11 7.20435 11 8ZM19 8C19 8.39397 18.9224 8.78407 18.7716 9.14805C18.6209 9.51203 18.3999 9.84274 18.1213 10.1213C17.8427 10.3999 17.512 10.6209 17.1481 10.7716C16.7841 10.9224 16.394 11 16 11C15.606 11 15.2159 10.9224 14.8519 10.7716C14.488 10.6209 14.1573 10.3999 13.8787 10.1213C13.6001 9.84274 13.3791 9.51203 13.2284 9.14805C13.0776 8.78407 13 8.39397 13 8C13 7.20435 13.3161 6.44129 13.8787 5.87868C14.4413 5.31607 15.2044 5 16 5C16.7956 5 17.5587 5.31607 18.1213 5.87868C18.6839 6.44129 19 7.20435 19 8ZM14.93 19C14.976 18.673 15 18.34 15 18C15.0023 16.4289 14.4737 14.903 13.5 13.67C14.2601 13.2312 15.1223 13.0001 16 13.0001C16.8776 13.0001 17.7399 13.2311 18.4999 13.67C19.26 14.1088 19.8912 14.74 20.3301 15.5C20.7689 16.2601 21 17.1223 21 18V19H14.93ZM8 13C9.32608 13 10.5979 13.5268 11.5355 14.4645C12.4732 15.4021 13 16.6739 13 18V19H3V18C3 16.6739 3.52678 15.4021 4.46447 14.4645C5.40215 13.5268 6.67392 13 8 13Z"
    fill="black"
  />
</svg>
